<svg width="39" height="42" viewBox="0 0 39 42" fill="none" xmlns="http://www.w3.org/2000/svg">
<path d="M16.1529 6.92455C16.1529 6.92455 5.89263 -0.954856 2.99873 0.452212C0.104833 1.85928 0.367896 17.8994 2.99871 18.7436C5.62953 19.5879 16.1529 11.9899 16.1529 11.9899M16.1529 6.92455V11.9899M16.1529 6.92455C16.1529 6.92455 18.5207 5.2361 21.9408 6.92455M16.1529 11.9899L10.3651 41.2562L15.1484 35.3466L16.1529 37.0351C16.1529 37.0351 16.6339 21.7706 16.9422 11.9899M16.1529 11.9899C16.1529 11.9899 16.4161 11.9899 16.9422 11.9899M21.9408 6.92455V11.9899M21.9408 6.92455C21.9408 6.92455 32.9902 -0.110594 35.8842 0.45221C38.7782 1.01501 39.3042 17.8994 35.8842 18.7436C32.4642 19.5879 21.9408 11.9899 21.9408 11.9899M21.9408 11.9899L27.7286 40.6933L21.9408 35.3466L20.6253 37.8793L21.4146 11.9899M21.9408 11.9899H21.4146M16.9422 11.9899C17.9757 13.358 20.806 13.1578 21.4146 11.9899" stroke="black" stroke-width="0.5"/>
</svg>
