<svg width="26" height="45" viewBox="0 0 26 45" fill="none" xmlns="http://www.w3.org/2000/svg">
<path d="M0.672852 15.1913H24.7562V40.1159C24.7465 40.1382 24.7311 40.1715 24.7083 40.2143C24.6585 40.308 24.5735 40.4479 24.4369 40.6189C24.1641 40.9603 23.6829 41.4293 22.8597 41.9036C21.2118 42.8531 18.1864 43.8271 12.7145 43.8271C7.24267 43.8271 4.21727 42.8531 2.56931 41.9036C1.74611 41.4293 1.26497 40.9603 0.992177 40.6189C0.855579 40.4479 0.770527 40.308 0.720701 40.2143C0.697965 40.1715 0.682526 40.1382 0.672852 40.1159V15.1913Z" stroke="black" stroke-width="0.5"/>
<path d="M24.7562 14.7137C24.7562 15.0607 24.4977 15.4732 23.8935 15.9115C23.3003 16.3418 22.4269 16.7567 21.3279 17.1182C19.1329 17.8402 16.087 18.3333 12.7145 18.3333C9.34209 18.3333 6.29614 17.8402 4.10112 17.1182C3.00219 16.7567 2.12879 16.3418 1.53558 15.9115C0.931307 15.4732 0.672852 15.0607 0.672852 14.7137C0.672852 14.3725 0.92447 13.9887 1.52603 13.5937C2.11741 13.2053 2.98967 12.8459 4.08991 12.5403C6.28688 11.93 9.33623 11.5494 12.7145 11.5494C16.0928 11.5494 19.1422 11.93 21.3391 12.5403C22.4394 12.8459 23.3116 13.2053 23.903 13.5937C24.5046 13.9887 24.7562 14.3725 24.7562 14.7137Z" fill="black" stroke="black" stroke-width="0.5"/>
<path d="M2.50539 6.04667C-0.403887 11.7757 0.584705 14.451 0.584705 14.451C0.584705 14.451 0.778907 15.4772 1.22494 15.9219C1.61782 16.3135 2.50541 16.5522 2.50541 16.5522C2.50541 16.5522 0.798092 12.1402 3.57248 6.88717C5.67604 2.90429 7.97806 1.29474 12.5357 1.42386C16.7219 1.54245 18.7577 1.70877 21.2857 4.99612C25.411 10.3606 22.3528 16.7623 22.3528 16.7623C22.3528 16.7623 23.5266 16.4345 24.06 15.9219C24.5409 15.4597 24.9137 14.451 24.9137 14.451C24.9137 14.451 25.7567 10.449 22.3528 4.99613C19.5078 0.438649 15.3101 0.373427 11.8955 0.373444C7.18653 0.373467 3.57239 3.94551 2.50539 6.04667Z" stroke="black" stroke-width="0.5"/>
<path d="M1.44192 21.5187C-0.0274111 19.9178 0.52436 16.2878 0.52436 16.2878C0.52436 16.2878 4.06495 19.3391 11.9341 19.3391C22.6449 19.3391 25.0062 15.8519 25.0062 15.8519C25.0062 15.8519 24.9987 27.3238 19.8033 28.4932C15.0402 29.5653 14.5135 22.145 9.74825 21.0828C6.57819 20.3761 3.63495 23.908 1.44192 21.5187Z" fill="black" stroke="black" stroke-width="0.5"/>
</svg>
