<svg width="56" height="56" viewBox="0 0 56 56" fill="none" xmlns="http://www.w3.org/2000/svg">
<path d="M6.6665 5.08333C6.6665 7.84093 4.55493 10.0667 1.96186 10.0667C-0.631197 10.0667 -2.74277 7.84093 -2.74277 5.08333C-2.74277 2.32572 -0.631197 0.1 1.96186 0.1C4.55493 0.1 6.6665 2.32572 6.6665 5.08333Z" stroke="black" stroke-width="0.2"/>
<path d="M41.2598 5.08333C41.2598 7.84093 39.1482 10.0667 36.5551 10.0667C33.9621 10.0667 31.8505 7.84093 31.8505 5.08333C31.8505 2.32572 33.9621 0.1 36.5551 0.1C39.1482 0.1 41.2598 2.32572 41.2598 5.08333Z" stroke="black" stroke-width="0.2"/>
<path d="M18.1978 5.08333C18.1978 7.84093 16.0862 10.0667 13.4931 10.0667C10.9001 10.0667 8.78848 7.84093 8.78848 5.08333C8.78848 2.32572 10.9001 0.1 13.4931 0.1C16.0862 0.1 18.1978 2.32572 18.1978 5.08333Z" stroke="black" stroke-width="0.2"/>
<path d="M29.729 5.08333C29.729 7.84093 27.6174 10.0667 25.0244 10.0667C22.4313 10.0667 20.3197 7.84093 20.3197 5.08333C20.3197 2.32572 22.4313 0.1 25.0244 0.1C27.6174 0.1 29.729 2.32572 29.729 5.08333Z" stroke="black" stroke-width="0.2"/>
<path d="M52.791 5.08333C52.791 7.84093 50.6794 10.0667 48.0864 10.0667C45.4933 10.0667 43.3817 7.84093 43.3817 5.08333C43.3817 2.32572 45.4933 0.1 48.0864 0.1C50.6794 0.1 52.791 2.32572 52.791 5.08333Z" stroke="black" stroke-width="0.2"/>
<path d="M64.3223 5.08333C64.3223 7.84093 62.2107 10.0667 59.6176 10.0667C57.0246 10.0667 54.913 7.84093 54.913 5.08333C54.913 2.32572 57.0246 0.1 59.6176 0.1C62.2107 0.1 64.3223 2.32572 64.3223 5.08333Z" stroke="black" stroke-width="0.2"/>
<path d="M6.6665 15.25C6.6665 18.0076 4.55493 20.2333 1.96186 20.2333C-0.631197 20.2333 -2.74277 18.0076 -2.74277 15.25C-2.74277 12.4924 -0.631197 10.2667 1.96186 10.2667C4.55493 10.2667 6.6665 12.4924 6.6665 15.25Z" stroke="black" stroke-width="0.2"/>
<path d="M41.2598 15.25C41.2598 18.0076 39.1482 20.2333 36.5551 20.2333C33.9621 20.2333 31.8505 18.0076 31.8505 15.25C31.8505 12.4924 33.9621 10.2667 36.5551 10.2667C39.1482 10.2667 41.2598 12.4924 41.2598 15.25Z" stroke="black" stroke-width="0.2"/>
<path d="M18.1978 15.25C18.1978 18.0076 16.0862 20.2333 13.4931 20.2333C10.9001 20.2333 8.78848 18.0076 8.78848 15.25C8.78848 12.4924 10.9001 10.2667 13.4931 10.2667C16.0862 10.2667 18.1978 12.4924 18.1978 15.25Z" stroke="black" stroke-width="0.2"/>
<path d="M29.729 15.25C29.729 18.0076 27.6174 20.2333 25.0244 20.2333C22.4313 20.2333 20.3197 18.0076 20.3197 15.25C20.3197 12.4924 22.4313 10.2667 25.0244 10.2667C27.6174 10.2667 29.729 12.4924 29.729 15.25Z" stroke="black" stroke-width="0.2"/>
<path d="M52.791 15.25C52.791 18.0076 50.6794 20.2333 48.0864 20.2333C45.4933 20.2333 43.3817 18.0076 43.3817 15.25C43.3817 12.4924 45.4933 10.2667 48.0864 10.2667C50.6794 10.2667 52.791 12.4924 52.791 15.25Z" stroke="black" stroke-width="0.2"/>
<path d="M64.3223 15.25C64.3223 18.0076 62.2107 20.2333 59.6176 20.2333C57.0246 20.2333 54.913 18.0076 54.913 15.25C54.913 12.4924 57.0246 10.2667 59.6176 10.2667C62.2107 10.2667 64.3223 12.4924 64.3223 15.25Z" stroke="black" stroke-width="0.2"/>
<path d="M6.6665 25.4166C6.6665 28.1742 4.55493 30.3999 1.96186 30.3999C-0.631197 30.3999 -2.74277 28.1742 -2.74277 25.4166C-2.74277 22.659 -0.631197 20.4333 1.96186 20.4333C4.55493 20.4333 6.6665 22.659 6.6665 25.4166Z" stroke="black" stroke-width="0.2"/>
<path d="M41.2598 25.4166C41.2598 28.1742 39.1482 30.3999 36.5551 30.3999C33.9621 30.3999 31.8505 28.1742 31.8505 25.4166C31.8505 22.659 33.9621 20.4333 36.5551 20.4333C39.1482 20.4333 41.2598 22.659 41.2598 25.4166Z" stroke="black" stroke-width="0.2"/>
<path d="M18.1978 25.4166C18.1978 28.1742 16.0862 30.3999 13.4931 30.3999C10.9001 30.3999 8.78848 28.1742 8.78848 25.4166C8.78848 22.659 10.9001 20.4333 13.4931 20.4333C16.0862 20.4333 18.1978 22.659 18.1978 25.4166Z" stroke="black" stroke-width="0.2"/>
<path d="M29.729 25.4166C29.729 28.1742 27.6174 30.3999 25.0244 30.3999C22.4313 30.3999 20.3197 28.1742 20.3197 25.4166C20.3197 22.659 22.4313 20.4333 25.0244 20.4333C27.6174 20.4333 29.729 22.659 29.729 25.4166Z" stroke="black" stroke-width="0.2"/>
<path d="M52.791 25.4166C52.791 28.1742 50.6794 30.3999 48.0864 30.3999C45.4933 30.3999 43.3817 28.1742 43.3817 25.4166C43.3817 22.659 45.4933 20.4333 48.0864 20.4333C50.6794 20.4333 52.791 22.659 52.791 25.4166Z" stroke="black" stroke-width="0.2"/>
<path d="M64.3223 25.4166C64.3223 28.1742 62.2107 30.3999 59.6176 30.3999C57.0246 30.3999 54.913 28.1742 54.913 25.4166C54.913 22.659 57.0246 20.4333 59.6176 20.4333C62.2107 20.4333 64.3223 22.659 64.3223 25.4166Z" stroke="black" stroke-width="0.2"/>
<path d="M6.6665 35.5833C6.6665 38.3409 4.55493 40.5667 1.96186 40.5667C-0.631197 40.5667 -2.74277 38.3409 -2.74277 35.5833C-2.74277 32.8257 -0.631197 30.6 1.96186 30.6C4.55493 30.6 6.6665 32.8257 6.6665 35.5833Z" stroke="black" stroke-width="0.2"/>
<path d="M41.2598 35.5833C41.2598 38.3409 39.1482 40.5667 36.5551 40.5667C33.9621 40.5667 31.8505 38.3409 31.8505 35.5833C31.8505 32.8257 33.9621 30.6 36.5551 30.6C39.1482 30.6 41.2598 32.8257 41.2598 35.5833Z" stroke="black" stroke-width="0.2"/>
<path d="M18.1978 35.5833C18.1978 38.3409 16.0862 40.5667 13.4931 40.5667C10.9001 40.5667 8.78848 38.3409 8.78848 35.5833C8.78848 32.8257 10.9001 30.6 13.4931 30.6C16.0862 30.6 18.1978 32.8257 18.1978 35.5833Z" stroke="black" stroke-width="0.2"/>
<path d="M29.729 35.5833C29.729 38.3409 27.6174 40.5667 25.0244 40.5667C22.4313 40.5667 20.3197 38.3409 20.3197 35.5833C20.3197 32.8257 22.4313 30.6 25.0244 30.6C27.6174 30.6 29.729 32.8257 29.729 35.5833Z" stroke="black" stroke-width="0.2"/>
<path d="M52.791 35.5833C52.791 38.3409 50.6794 40.5667 48.0864 40.5667C45.4933 40.5667 43.3817 38.3409 43.3817 35.5833C43.3817 32.8257 45.4933 30.6 48.0864 30.6C50.6794 30.6 52.791 32.8257 52.791 35.5833Z" stroke="black" stroke-width="0.2"/>
<path d="M64.3223 35.5833C64.3223 38.3409 62.2107 40.5667 59.6176 40.5667C57.0246 40.5667 54.913 38.3409 54.913 35.5833C54.913 32.8257 57.0246 30.6 59.6176 30.6C62.2107 30.6 64.3223 32.8257 64.3223 35.5833Z" stroke="black" stroke-width="0.2"/>
<path d="M6.6665 45.75C6.6665 48.5076 4.55493 50.7333 1.96186 50.7333C-0.631197 50.7333 -2.74277 48.5076 -2.74277 45.75C-2.74277 42.9924 -0.631197 40.7666 1.96186 40.7666C4.55493 40.7666 6.6665 42.9924 6.6665 45.75Z" stroke="black" stroke-width="0.2"/>
<path d="M41.2598 45.75C41.2598 48.5076 39.1482 50.7333 36.5551 50.7333C33.9621 50.7333 31.8505 48.5076 31.8505 45.75C31.8505 42.9924 33.9621 40.7666 36.5551 40.7666C39.1482 40.7666 41.2598 42.9924 41.2598 45.75Z" stroke="black" stroke-width="0.2"/>
<path d="M18.1978 45.75C18.1978 48.5076 16.0862 50.7333 13.4931 50.7333C10.9001 50.7333 8.78848 48.5076 8.78848 45.75C8.78848 42.9924 10.9001 40.7666 13.4931 40.7666C16.0862 40.7666 18.1978 42.9924 18.1978 45.75Z" stroke="black" stroke-width="0.2"/>
<path d="M29.729 45.75C29.729 48.5076 27.6174 50.7333 25.0244 50.7333C22.4313 50.7333 20.3197 48.5076 20.3197 45.75C20.3197 42.9924 22.4313 40.7666 25.0244 40.7666C27.6174 40.7666 29.729 42.9924 29.729 45.75Z" stroke="black" stroke-width="0.2"/>
<path d="M52.791 45.75C52.791 48.5076 50.6794 50.7333 48.0864 50.7333C45.4933 50.7333 43.3817 48.5076 43.3817 45.75C43.3817 42.9924 45.4933 40.7666 48.0864 40.7666C50.6794 40.7666 52.791 42.9924 52.791 45.75Z" stroke="black" stroke-width="0.2"/>
<path d="M64.3223 45.75C64.3223 48.5076 62.2107 50.7333 59.6176 50.7333C57.0246 50.7333 54.913 48.5076 54.913 45.75C54.913 42.9924 57.0246 40.7666 59.6176 40.7666C62.2107 40.7666 64.3223 42.9924 64.3223 45.75Z" stroke="black" stroke-width="0.2"/>
<path d="M6.6665 55.9167C6.6665 58.6743 4.55493 60.9 1.96186 60.9C-0.631197 60.9 -2.74277 58.6743 -2.74277 55.9167C-2.74277 53.1591 -0.631197 50.9334 1.96186 50.9334C4.55493 50.9334 6.6665 53.1591 6.6665 55.9167Z" stroke="black" stroke-width="0.2"/>
<path d="M41.2598 55.9167C41.2598 58.6743 39.1482 60.9 36.5551 60.9C33.9621 60.9 31.8505 58.6743 31.8505 55.9167C31.8505 53.1591 33.9621 50.9334 36.5551 50.9334C39.1482 50.9334 41.2598 53.1591 41.2598 55.9167Z" stroke="black" stroke-width="0.2"/>
<path d="M18.1978 55.9167C18.1978 58.6743 16.0862 60.9 13.4931 60.9C10.9001 60.9 8.78848 58.6743 8.78848 55.9167C8.78848 53.1591 10.9001 50.9334 13.4931 50.9334C16.0862 50.9334 18.1978 53.1591 18.1978 55.9167Z" stroke="black" stroke-width="0.2"/>
<path d="M29.729 55.9167C29.729 58.6743 27.6174 60.9 25.0244 60.9C22.4313 60.9 20.3197 58.6743 20.3197 55.9167C20.3197 53.1591 22.4313 50.9334 25.0244 50.9334C27.6174 50.9334 29.729 53.1591 29.729 55.9167Z" stroke="black" stroke-width="0.2"/>
<path d="M52.791 55.9167C52.791 58.6743 50.6794 60.9 48.0864 60.9C45.4933 60.9 43.3817 58.6743 43.3817 55.9167C43.3817 53.1591 45.4933 50.9334 48.0864 50.9334C50.6794 50.9334 52.791 53.1591 52.791 55.9167Z" stroke="black" stroke-width="0.2"/>
<path d="M64.3223 55.9167C64.3223 58.6743 62.2107 60.9 59.6176 60.9C57.0246 60.9 54.913 58.6743 54.913 55.9167C54.913 53.1591 57.0246 50.9334 59.6176 50.9334C62.2107 50.9334 64.3223 53.1591 64.3223 55.9167Z" stroke="black" stroke-width="0.2"/>
</svg>
