<svg width="27" height="27" viewBox="0 0 27 27" fill="none" xmlns="http://www.w3.org/2000/svg">
<path d="M17.6912 10.3697H23.0883L19.6492 6.92839C18.542 5.82116 17.1628 5.02493 15.6503 4.61973C14.1378 4.21453 12.5452 4.21465 11.0328 4.62007C9.52032 5.0255 8.14126 5.82194 7.03421 6.92933C5.92716 8.03672 5.13115 9.41604 4.72619 10.9286M3.59532 21.5011V16.104M3.59532 16.104H8.99237M3.59532 16.104L7.03335 19.5453C8.14056 20.6525 9.51974 21.4488 11.0323 21.854C12.5448 22.2592 14.1373 22.259 15.6497 21.8536C17.1622 21.4482 18.5413 20.6518 19.6483 19.5444C20.7554 18.437 21.5514 17.0577 21.9563 15.5451M23.0883 4.97261V10.3675" stroke="black" stroke-width="1.34211" stroke-linecap="round" stroke-linejoin="round"/>
</svg>
