<svg width="23" height="24" viewBox="0 0 23 24" fill="none" xmlns="http://www.w3.org/2000/svg">
<path d="M1.70892 6.09443L6.05803 1.74531C6.15539 1.64741 6.27119 1.5698 6.39874 1.51697C6.5263 1.46413 6.66306 1.43712 6.80112 1.4375H19.9685C20.2472 1.43783 20.5143 1.54866 20.7113 1.74569C20.9084 1.94272 21.0192 2.20985 21.0195 2.48849V21.4063C21.0192 21.6849 20.9084 21.952 20.7113 22.1491C20.5143 22.3461 20.2472 22.4569 19.9685 22.4572H2.4521C2.17346 22.4569 1.90632 22.3461 1.7093 22.1491C1.51227 21.952 1.40144 21.6849 1.40111 21.4063V6.83752C1.40073 6.69946 1.42774 6.56269 1.48057 6.43514C1.53341 6.30758 1.61102 6.19178 1.70892 6.09443ZM8.40769 2.83882V7.04277H14.7136V2.83882H8.40769ZM2.80243 21.0559H19.6182V2.83882H16.1149V8.44408H7.00637V2.83882H6.94625L2.80243 6.98264V21.0559Z" fill="black"/>
<path d="M11.3858 10.5461C12.1826 10.5461 12.9615 10.7823 13.624 11.225C14.2866 11.6677 14.8029 12.2969 15.1079 13.0331C15.4128 13.7692 15.4926 14.5793 15.3371 15.3608C15.1817 16.1423 14.798 16.8602 14.2345 17.4236C13.6711 17.987 12.9532 18.3708 12.1717 18.5262C11.3902 18.6817 10.5802 18.6019 9.84402 18.2969C9.10785 17.992 8.47864 17.4756 8.03596 16.8131C7.59327 16.1506 7.35698 15.3717 7.35698 14.5748C7.35814 13.5067 7.78298 12.4826 8.53827 11.7273C9.29356 10.972 10.3176 10.5472 11.3858 10.5461ZM11.3858 17.2023C11.9054 17.2023 12.4134 17.0482 12.8455 16.7595C13.2776 16.4708 13.6144 16.0604 13.8132 15.5803C14.0121 15.1002 14.0641 14.5719 13.9627 14.0622C13.8614 13.5526 13.6111 13.0844 13.2437 12.7169C12.8762 12.3495 12.408 12.0992 11.8984 11.9979C11.3887 11.8965 10.8604 11.9485 10.3803 12.1474C9.90017 12.3462 9.48982 12.683 9.20111 13.1151C8.9124 13.5472 8.7583 14.0552 8.7583 14.5748C8.75909 15.2714 9.03616 15.9393 9.52874 16.4319C10.0213 16.9244 10.6892 17.2015 11.3858 17.2023Z" fill="black"/>
</svg>
