<svg width="39" height="39" viewBox="0 0 39 39" fill="none" xmlns="http://www.w3.org/2000/svg">
<rect x="38.5" y="0.5" width="38" height="38" rx="5.5" transform="rotate(90 38.5 0.5)" fill="white"/>
<rect x="38.5" y="0.5" width="38" height="38" rx="5.5" transform="rotate(90 38.5 0.5)" stroke="black"/>
<path d="M14.9874 10.4866L22.904 18.8175C23.0776 18.9993 23.175 19.2447 23.175 19.5003C23.175 19.756 23.0776 20.0014 22.904 20.1832L14.9892 28.5141C14.8156 28.697 14.7184 28.9432 14.7184 29.1996C14.7184 29.4561 14.8156 29.7022 14.9892 29.8851C15.0739 29.9752 15.1753 30.0468 15.2872 30.0956C15.3991 30.1445 15.5193 30.1697 15.6407 30.1697C15.7622 30.1697 15.8824 30.1445 15.9943 30.0956C16.1062 30.0468 16.2075 29.9752 16.2923 29.8851L24.2071 21.556C24.7272 21.0073 25.0186 20.2692 25.0186 19.5003C25.0186 18.7315 24.7272 17.9933 24.2071 17.4447L16.2923 9.11556C16.2075 9.02522 16.106 8.95341 15.994 8.90438C15.8819 8.85534 15.7615 8.83008 15.6399 8.83008C15.5182 8.83008 15.3978 8.85534 15.2857 8.90438C15.1737 8.95341 15.0722 9.02522 14.9874 9.11556C14.8139 9.29845 14.7167 9.54463 14.7167 9.80106C14.7167 10.0575 14.8139 10.3037 14.9874 10.4866Z" fill="#252220"/>
</svg>
