<svg width="12" height="23" viewBox="0 0 12 23" fill="none" xmlns="http://www.w3.org/2000/svg">
<path d="M11.0126 20.5134L3.09603 12.1825C2.92241 12.0007 2.82502 11.7553 2.82502 11.4997C2.82502 11.244 2.92241 10.9986 3.09603 10.8168L11.0108 2.48587C11.1844 2.30297 11.2816 2.0568 11.2816 1.80037C11.2816 1.54394 11.1844 1.29776 11.0108 1.11486C10.9261 1.0248 10.8247 0.953222 10.7128 0.90435C10.6009 0.855478 10.4807 0.830299 10.3593 0.830299C10.2378 0.830299 10.1176 0.855478 10.0057 0.90435C9.89383 0.953222 9.79251 1.0248 9.70773 1.11486L1.79292 9.44403C1.27283 9.99265 0.981445 10.7308 0.981445 11.4997C0.981445 12.2685 1.27283 13.0067 1.79292 13.5553L9.70773 21.8844C9.79253 21.9748 9.89396 22.0466 10.006 22.0956C10.1181 22.1447 10.2385 22.1699 10.3601 22.1699C10.4818 22.1699 10.6022 22.1447 10.7143 22.0956C10.8263 22.0466 10.9278 21.9748 11.0126 21.8844C11.1861 21.7015 11.2833 21.4554 11.2833 21.1989C11.2833 20.9425 11.1861 20.6963 11.0126 20.5134Z" fill="#252220"/>
</svg>
