<svg width="39" height="39" viewBox="0 0 39 39" fill="none" xmlns="http://www.w3.org/2000/svg">
<rect x="0.5" y="38.5" width="38" height="38" rx="5.5" transform="rotate(-90 0.5 38.5)" fill="white"/>
<rect x="0.5" y="38.5" width="38" height="38" rx="5.5" transform="rotate(-90 0.5 38.5)" stroke="black"/>
<path d="M24.0126 28.5134L16.096 20.1825C15.9224 20.0007 15.825 19.7553 15.825 19.4997C15.825 19.244 15.9224 18.9986 16.096 18.8168L24.0108 10.4859C24.1844 10.303 24.2816 10.0568 24.2816 9.80037C24.2816 9.54394 24.1844 9.29776 24.0108 9.11486C23.9261 9.0248 23.8247 8.95322 23.7128 8.90435C23.6009 8.85548 23.4807 8.8303 23.3593 8.8303C23.2378 8.8303 23.1176 8.85548 23.0057 8.90435C22.8938 8.95322 22.7925 9.0248 22.7077 9.11486L14.7929 17.444C14.2728 17.9927 13.9814 18.7308 13.9814 19.4997C13.9814 20.2685 14.2728 21.0067 14.7929 21.5553L22.7077 29.8844C22.7925 29.9748 22.894 30.0466 23.006 30.0956C23.1181 30.1447 23.2385 30.1699 23.3601 30.1699C23.4818 30.1699 23.6022 30.1447 23.7143 30.0956C23.8263 30.0466 23.9278 29.9748 24.0126 29.8844C24.1861 29.7015 24.2833 29.4554 24.2833 29.1989C24.2833 28.9425 24.1861 28.6963 24.0126 28.5134Z" fill="#252220"/>
</svg>
