<svg width="12" height="23" viewBox="0 0 12 23" fill="none" xmlns="http://www.w3.org/2000/svg">
<path d="M0.98744 2.48656L8.90397 10.8175C9.07759 10.9993 9.17498 11.2447 9.17498 11.5003C9.17498 11.756 9.07759 12.0014 8.90397 12.1832L0.989158 20.5141C0.815622 20.697 0.718385 20.9432 0.718385 21.1996C0.718385 21.4561 0.815622 21.7022 0.989158 21.8851C1.07393 21.9752 1.17525 22.0468 1.28716 22.0956C1.39906 22.1445 1.51927 22.1697 1.64071 22.1697C1.76216 22.1697 1.88237 22.1445 1.99427 22.0956C2.10617 22.0468 2.20749 21.9752 2.29227 21.8851L10.2071 13.556C10.7272 13.0073 11.0186 12.2692 11.0186 11.5003C11.0186 10.7315 10.7272 9.99335 10.2071 9.44473L2.29227 1.11556C2.20747 1.02522 2.10604 0.95341 1.99398 0.904376C1.88192 0.855342 1.7615 0.830078 1.63985 0.830078C1.5182 0.830078 1.39779 0.855342 1.28573 0.904376C1.17367 0.95341 1.07224 1.02522 0.98744 1.11556C0.813905 1.29845 0.716667 1.54463 0.716667 1.80106C0.716667 2.05749 0.813905 2.30366 0.98744 2.48656Z" fill="#252220"/>
</svg>
