<svg width="44" height="44" viewBox="0 0 44 44" fill="none" xmlns="http://www.w3.org/2000/svg">
<path d="M14.002 34.5538L14.3794 34.7764C15.5051 35.4457 16.7138 35.9644 17.9745 36.3192L18.3876 36.4347V41.1405C18.3876 42.1572 19.2173 42.9845 20.2364 42.9845H23.7458C24.2362 42.9818 24.7063 42.7877 25.0556 42.4434C25.405 42.0992 25.606 41.6321 25.616 41.1417V36.4419L26.0291 36.3264C27.2516 35.9839 28.4244 35.4841 29.5182 34.8395L29.8956 34.6169L32.9396 37.6835C33.6265 38.3763 34.8395 38.3882 35.5502 37.6918L38.037 35.2145C38.3882 34.8669 38.5823 34.4062 38.5823 33.9181C38.5823 33.4146 38.3942 32.9515 38.0525 32.6134L34.8895 29.4266L35.0907 29.0575C35.6264 28.0719 36.0419 27.0445 36.3276 26.0064L36.443 25.591H41.156C42.1726 25.591 43 24.7624 43 23.7434V20.2387C43 19.2221 42.1726 18.3936 41.156 18.3936H36.4442L36.3288 17.9793C35.9882 16.7546 35.4909 15.579 34.849 14.4818L34.6276 14.1032L38.1311 10.6212C38.4835 10.2712 38.6775 9.80927 38.6775 9.32119C38.6775 8.82121 38.4882 8.35694 38.1442 8.01409L35.6681 5.51892C35.3179 5.17984 34.8499 4.98967 34.3624 4.98834C33.8749 4.98701 33.4059 5.17462 33.0539 5.51178L29.4313 9.10096L29.0623 8.90216C28.0947 8.37713 27.0713 7.96225 26.0112 7.66529L25.5969 7.54981V2.84519C25.5969 1.82855 24.7696 1 23.7529 1H20.2387C19.2221 1 18.3947 1.82736 18.3947 2.84519V7.54863L17.9805 7.6641C16.9448 7.95099 15.9531 8.3486 15.0306 8.84383L14.6579 9.04382L11.064 5.41773C10.3724 4.72728 9.15691 4.71656 8.45098 5.41059L5.96415 7.88552C5.79096 8.05493 5.65325 8.25712 5.55902 8.48031C5.4648 8.7035 5.41596 8.94322 5.41535 9.18548C5.41329 9.42856 5.45959 9.66961 5.55156 9.89463C5.64353 10.1196 5.77932 10.3241 5.95105 10.4962L9.43071 14.0115L9.2081 14.3865C8.53901 15.5107 8.02031 16.7178 7.66529 17.9769L7.54982 18.39H2.844C1.82736 18.39 1 19.2185 1 20.2364V23.747C1 24.7648 1.82736 25.5957 2.84638 25.5993H7.54743L7.66291 26.0136C7.93909 27.0088 8.33551 27.9992 8.84383 28.9599L9.04025 29.3302L5.85701 32.4884C5.51064 32.8329 5.31501 33.3006 5.313 33.7891C5.31099 34.2776 5.50277 34.747 5.84629 35.0943L8.32598 37.5894C9.02596 38.2859 10.2295 38.293 10.939 37.5966L14.002 34.5538Z" stroke="black" stroke-width="0.25"/>
<path d="M16.6854 16.6779C18.0795 15.2836 19.9698 14.4991 21.9416 14.4966C23.9133 14.4994 25.8036 15.284 27.1978 16.6782C28.5921 18.0725 29.3766 19.9627 29.3795 21.9345C29.3769 23.9062 28.5925 25.7965 27.1981 27.1906C25.8037 28.5848 23.9134 29.3689 21.9416 29.3712C19.97 29.3686 18.0799 28.5843 16.6858 27.1902C15.2917 25.7961 14.5074 23.906 14.5049 21.9345C14.5071 19.9627 15.2913 18.0723 16.6854 16.6779Z" stroke="black" stroke-width="0.25"/>
</svg>
