<svg width="48" height="38" viewBox="0 0 48 38" fill="none" xmlns="http://www.w3.org/2000/svg">
<path d="M1 4H47" stroke="black" stroke-width="0.5" stroke-linecap="round"/>
<path d="M7.34952 1.34994C8.05245 0.646898 9.00551 0.251338 9.99967 0.25C10.9939 0.251495 11.9469 0.647095 12.6499 1.3501C13.3529 2.05307 13.7485 3.00605 13.75 4.00019C13.7487 4.9944 13.3531 5.94752 12.6501 6.65048C11.947 7.35341 10.9939 7.74882 9.99972 7.75C9.00564 7.74868 8.05266 7.3532 7.34973 6.65027C6.64681 5.94735 6.25133 4.99437 6.25 4.0003C6.25117 3.00612 6.64658 2.05299 7.34952 1.34994Z" fill="#252220" stroke="black" stroke-width="0.5"/>
<path d="M47 19H1" stroke="black" stroke-width="0.5" stroke-linecap="round"/>
<path d="M39.6505 16.3499C38.9475 15.6469 37.9945 15.2513 37.0003 15.25C36.0061 15.2515 35.0531 15.6471 34.3501 16.3501C33.6471 17.0531 33.2515 18.0061 33.25 19.0002C33.2513 19.9944 33.6469 20.9475 34.3499 21.6505C35.053 22.3534 36.0061 22.7488 37.0003 22.75C37.9944 22.7487 38.9473 22.3532 39.6503 21.6503C40.3532 20.9473 40.7487 19.9944 40.75 19.0003C40.7488 18.0061 40.3534 17.053 39.6505 16.3499Z" fill="#252220" stroke="black" stroke-width="0.5"/>
<path d="M1 34H47" stroke="black" stroke-width="0.5" stroke-linecap="round"/>
<path d="M16.3495 31.3499C17.0525 30.6469 18.0055 30.2513 18.9997 30.25C19.9939 30.2515 20.9469 30.6471 21.6499 31.3501C22.3529 32.0531 22.7485 33.0061 22.75 34.0002C22.7487 34.9944 22.3531 35.9475 21.6501 36.6505C20.947 37.3534 19.9939 37.7488 18.9997 37.75C18.0056 37.7487 17.0527 37.3532 16.3497 36.6503C15.6468 35.9473 15.2513 34.9944 15.25 34.0003C15.2512 33.0061 15.6466 32.053 16.3495 31.3499Z" fill="#252220" stroke="black" stroke-width="0.5"/>
</svg>
