<svg width="46" height="47" viewBox="0 0 46 47" fill="none" xmlns="http://www.w3.org/2000/svg">
<path d="M36.1823 15.5833C36.1823 24.0414 30.544 30.8117 23.6854 30.8117C16.8268 30.8117 11.1885 24.0414 11.1885 15.5833C11.1885 7.12533 16.8268 0.35495 23.6854 0.35495C30.544 0.35495 36.1823 7.12533 36.1823 15.5833Z" stroke="black" stroke-width="0.5"/>
<path d="M10.938 15.8345C10.938 15.8345 7.64683 15.1281 8.29048 19.0133C8.76017 21.8485 12.0695 21.9568 12.0695 21.9568M35.9403 15.7168C35.9403 15.7168 38.8028 14.5984 38.159 18.8368C37.7886 21.2757 34.831 21.4369 34.831 21.4369" stroke="black" stroke-width="0.5"/>
<path d="M19.0272 36.6385C19.0272 34.9313 17.3117 29.2408 17.3117 29.2408C17.3117 29.2408 21.514 30.424 23.23 30.4927C26.8719 30.6385 30.5139 28.3303 30.5139 28.3303C30.5139 28.3303 27.756 33.907 28.0793 36.6385C28.3399 38.8406 28.7259 40.3943 31.6355 41.0772C36.6949 42.2646 39.1518 40.2677 42.6274 42.4429C44.7834 43.7922 45.5371 46.5401 45.5371 46.5401H0.922852C0.922852 46.5401 1.5945 43.4496 4.47905 41.4186C5.44893 40.7357 9.97501 41.4186 11.5915 41.4186C14.9909 41.4186 19.0272 40.2288 19.0272 36.6385Z" stroke="black" stroke-width="0.5"/>
</svg>
