<svg width="227" height="126" viewBox="0 0 227 126" fill="none" xmlns="http://www.w3.org/2000/svg">
<path d="M70.385 12.8554C71.8429 -4.91865 16.8019 -0.957295 29.3274 22.2017C34.6574 32.0566 -3.7291 6.77644 1.63498 50.5378C2.62617 58.6242 23.1751 62.2619 13.8489 83.56C-10.6337 139.471 25.5293 68.5078 73.045 113.843C75.4706 116.612 94.4609 124.794 106.979 124.632C117.181 124.5 125.419 118.139 126.416 105.978C131.696 114.388 148.433 118.698 158.377 116.576C171.034 113.875 180.695 105.25 170.971 96.4475C184.399 108.604 202.209 103.719 203.36 89.6864C219.886 100.46 234.55 61.1662 218.739 59.8694C230.563 55.1886 225.377 27.4519 208.232 30.2836C208.731 24.203 184.727 3.93349 166.546 16.9758C161.163 -2.30109 123.795 4.52231 123.066 13.4095C122.529 19.9578 99.7132 -17.2301 70.385 12.8554Z" fill="white" stroke="black"/>
</svg>
