<svg width="236" height="142" viewBox="0 0 236 142" fill="none" xmlns="http://www.w3.org/2000/svg">
<path d="M75.385 19.8554C76.8429 2.08135 21.8019 6.0427 34.3274 29.2017C39.6574 39.0566 1.2709 13.7764 6.63498 57.5378C7.62617 65.6242 28.1751 69.2619 18.8489 90.56C-5.63373 146.471 30.5293 75.5078 78.045 120.843C80.4706 123.612 99.4609 131.794 111.979 131.632C122.181 131.5 130.419 125.139 131.416 112.978C136.696 121.388 153.433 125.698 163.377 123.576C176.034 120.875 185.695 112.25 175.971 103.448C189.399 115.604 207.209 110.719 208.36 96.6864C224.886 107.46 239.55 68.1662 223.739 66.8694C235.563 62.1886 230.377 34.4519 213.232 37.2836C213.731 31.203 189.727 10.9335 171.546 23.9758C166.163 4.69891 128.795 11.5223 128.066 20.4095C127.529 26.9578 104.713 -10.2301 75.385 19.8554Z" fill="white" stroke="black"/>
<path d="M37.224 41.2H38.19L40.528 49.908H40.612L43.496 41.2H44.392L47.262 49.908H47.346L49.698 41.2H50.664L48.004 51H46.646L43.986 42.852H43.902L41.242 51H39.884L37.224 41.2ZM54.5708 51.084C53.8334 51.084 53.2081 50.902 52.6948 50.538C52.1814 50.174 51.7941 49.7027 51.5328 49.124C51.2808 48.536 51.1548 47.9153 51.1548 47.262C51.1548 46.5993 51.2808 45.9787 51.5328 45.4C51.7941 44.812 52.1814 44.336 52.6948 43.972C53.2081 43.608 53.8334 43.426 54.5708 43.426C55.3081 43.426 55.9334 43.608 56.4468 43.972C56.9601 44.336 57.3428 44.812 57.5948 45.4C57.8561 45.9787 57.9868 46.5947 57.9868 47.248C57.9868 47.9107 57.8561 48.536 57.5948 49.124C57.3428 49.7027 56.9601 50.174 56.4468 50.538C55.9334 50.902 55.3081 51.084 54.5708 51.084ZM54.5708 50.23C55.0654 50.23 55.4948 50.0993 55.8588 49.838C56.2321 49.5673 56.5168 49.208 56.7128 48.76C56.9181 48.3027 57.0208 47.7987 57.0208 47.248C57.0208 46.688 56.9228 46.184 56.7268 45.736C56.5308 45.2787 56.2461 44.9193 55.8728 44.658C55.4994 44.3967 55.0654 44.266 54.5708 44.266C54.0761 44.266 53.6421 44.3967 53.2688 44.658C52.8954 44.9193 52.6108 45.2787 52.4148 45.736C52.2188 46.1933 52.1208 46.6973 52.1208 47.248C52.1208 47.808 52.2188 48.3167 52.4148 48.774C52.6108 49.222 52.8908 49.5767 53.2548 49.838C53.6281 50.0993 54.0668 50.23 54.5708 50.23ZM59.2426 43.636H60.1806L61.9446 49.936H62.0006L64.0026 43.636H64.8706L66.9006 49.936H66.9566L68.6926 43.636H69.6306L67.5586 51H66.2846L64.4786 45.288H64.3946L62.6026 51H61.3426L59.2426 43.636ZM77.2869 51.084C76.6335 51.084 76.0689 50.916 75.5929 50.58C75.1169 50.244 74.7529 49.7867 74.5009 49.208C74.2582 48.6293 74.1369 47.9807 74.1369 47.262C74.1369 46.534 74.2582 45.8807 74.5009 45.302C74.7529 44.714 75.1169 44.252 75.5929 43.916C76.0782 43.58 76.6569 43.412 77.3289 43.412C77.9915 43.412 78.5282 43.5753 78.9389 43.902C79.3589 44.2193 79.6809 44.6067 79.9049 45.064H80.0029V43.636H80.9689V53.828H80.0029V49.404H79.9049C79.6715 49.88 79.3402 50.2813 78.9109 50.608C78.4815 50.9253 77.9402 51.084 77.2869 51.084ZM77.5529 50.23C78.3275 50.23 78.9249 49.95 79.3449 49.39C79.7649 48.8207 79.9749 48.1113 79.9749 47.262C79.9749 46.4127 79.7649 45.7033 79.3449 45.134C78.9249 44.5647 78.3275 44.28 77.5529 44.28C76.7595 44.28 76.1575 44.5647 75.7469 45.134C75.3362 45.694 75.1309 46.3987 75.1309 47.248C75.1309 48.1067 75.3362 48.8207 75.7469 49.39C76.1669 49.95 76.7689 50.23 77.5529 50.23ZM89.5378 51H88.5718V49.53H88.4878C88.2918 49.978 87.9792 50.356 87.5498 50.664C87.1298 50.972 86.6118 51.126 85.9958 51.126C85.3892 51.126 84.8758 50.9813 84.4558 50.692C84.0358 50.3933 83.7232 50.0013 83.5178 49.516C83.3125 49.0307 83.2098 48.4987 83.2098 47.92V43.636H84.1758V47.808C84.1758 48.6013 84.3765 49.2033 84.7778 49.614C85.1885 50.0247 85.7112 50.23 86.3458 50.23C87.0178 50.23 87.5545 50.006 87.9558 49.558C88.3665 49.11 88.5718 48.5267 88.5718 47.808V43.636H89.5378V51ZM94.7524 51.084C94.0057 51.084 93.3757 50.902 92.8624 50.538C92.3491 50.174 91.9664 49.698 91.7144 49.11C91.4624 48.522 91.3364 47.9013 91.3364 47.248C91.3364 46.5947 91.4624 45.974 91.7144 45.386C91.9664 44.798 92.3491 44.322 92.8624 43.958C93.3757 43.594 94.0057 43.412 94.7524 43.412C95.7324 43.412 96.5164 43.7433 97.1044 44.406C97.6924 45.0687 97.9864 46.0253 97.9864 47.276V47.542H92.3024V47.64C92.3024 48.088 92.4004 48.5173 92.5964 48.928C92.8017 49.3293 93.0911 49.6513 93.4644 49.894C93.8377 50.1367 94.2624 50.258 94.7384 50.258C95.2611 50.258 95.7091 50.1273 96.0824 49.866C96.4557 49.5953 96.7357 49.2313 96.9224 48.774H97.8744C97.6691 49.4367 97.3051 49.9873 96.7824 50.426C96.2597 50.8647 95.5831 51.084 94.7524 51.084ZM97.0204 46.828C96.9831 45.904 96.7591 45.2367 96.3484 44.826C95.9377 44.4153 95.4057 44.21 94.7524 44.21C94.0244 44.21 93.4457 44.4527 93.0164 44.938C92.5964 45.4233 92.3677 46.0533 92.3304 46.828H97.0204ZM101.626 51.07C101.122 51.07 100.744 50.986 100.492 50.818C100.249 50.65 100.091 50.4307 100.016 50.16C99.9505 49.88 99.9179 49.516 99.9179 49.068V40.5H100.884V48.942C100.884 49.306 100.898 49.5767 100.926 49.754C100.963 49.9313 101.052 50.0713 101.192 50.174C101.341 50.2767 101.575 50.328 101.892 50.328C101.985 50.328 102.088 50.3233 102.2 50.314C102.312 50.2953 102.391 50.286 102.438 50.286V50.986C102.158 51.042 101.887 51.07 101.626 51.07ZM110.084 51.084C109.431 51.084 108.866 50.916 108.39 50.58C107.924 50.244 107.564 49.7867 107.312 49.208C107.07 48.6293 106.948 47.9807 106.948 47.262C106.948 46.534 107.07 45.8807 107.312 45.302C107.564 44.714 107.928 44.252 108.404 43.916C108.89 43.58 109.468 43.412 110.14 43.412C110.803 43.412 111.34 43.5753 111.75 43.902C112.17 44.2193 112.492 44.6067 112.716 45.064H112.814V43.636H113.78V51H112.814V49.404H112.716C112.474 49.88 112.138 50.2813 111.708 50.608C111.288 50.9253 110.747 51.084 110.084 51.084ZM110.35 50.23C111.134 50.23 111.732 49.95 112.142 49.39C112.562 48.8207 112.772 48.1067 112.772 47.248C112.772 46.3893 112.562 45.68 112.142 45.12C111.732 44.56 111.134 44.28 110.35 44.28C109.557 44.28 108.955 44.5647 108.544 45.134C108.143 45.694 107.942 46.3987 107.942 47.248C107.942 48.1067 108.148 48.8207 108.558 49.39C108.969 49.95 109.566 50.23 110.35 50.23ZM115.98 43.636H116.932V44.812H117.002C117.132 44.4853 117.352 44.21 117.66 43.986C117.968 43.7527 118.35 43.636 118.808 43.636C118.976 43.636 119.106 43.6453 119.2 43.664C119.302 43.6733 119.41 43.7013 119.522 43.748L119.494 44.7C119.335 44.6533 119.2 44.6253 119.088 44.616C118.985 44.5973 118.854 44.588 118.696 44.588C118.164 44.588 117.734 44.7513 117.408 45.078C117.09 45.3953 116.932 45.9273 116.932 46.674V51H115.98V43.636ZM122.557 44.42V49.026C122.557 49.3807 122.571 49.642 122.599 49.81C122.637 49.9687 122.725 50.0947 122.865 50.188C123.005 50.2813 123.234 50.328 123.551 50.328C123.794 50.328 124.055 50.2953 124.335 50.23V50.93C124.242 50.9673 124.097 51 123.901 51.028C123.715 51.056 123.514 51.07 123.299 51.07C122.805 51.07 122.431 51 122.179 50.86C121.937 50.7107 121.773 50.51 121.689 50.258C121.615 50.006 121.577 49.6653 121.577 49.236L121.591 44.42H120.163V43.636H121.591V41.2H122.557V43.636H124.335V44.42H122.557ZM126.264 43.636H127.23V51H126.264V43.636ZM126.726 42.236C126.53 42.236 126.367 42.1707 126.236 42.04C126.106 41.9 126.04 41.732 126.04 41.536C126.04 41.3493 126.106 41.1907 126.236 41.06C126.367 40.92 126.53 40.85 126.726 40.85C126.922 40.85 127.086 40.92 127.216 41.06C127.347 41.1907 127.412 41.3493 127.412 41.536C127.412 41.732 127.347 41.9 127.216 42.04C127.086 42.1707 126.922 42.236 126.726 42.236ZM132.008 51.084C131.42 51.084 130.906 50.9673 130.468 50.734C130.038 50.5007 129.707 50.1973 129.474 49.824C129.25 49.4413 129.138 49.0447 129.138 48.634V48.578H130.118V48.634C130.118 48.8953 130.188 49.152 130.328 49.404C130.477 49.656 130.696 49.8613 130.986 50.02C131.275 50.1787 131.625 50.258 132.036 50.258C132.53 50.258 132.941 50.1413 133.268 49.908C133.594 49.6653 133.758 49.3293 133.758 48.9C133.758 48.5453 133.632 48.2653 133.38 48.06C133.137 47.8547 132.829 47.724 132.456 47.668L131.448 47.528C130.822 47.4347 130.309 47.2293 129.908 46.912C129.516 46.5853 129.32 46.128 129.32 45.54C129.32 44.8773 129.562 44.3593 130.048 43.986C130.533 43.6033 131.154 43.412 131.91 43.412C132.46 43.412 132.936 43.5193 133.338 43.734C133.739 43.9393 134.042 44.2147 134.248 44.56C134.462 44.9053 134.57 45.2787 134.57 45.68V45.722H133.59V45.694C133.59 45.4887 133.534 45.274 133.422 45.05C133.31 44.8167 133.123 44.616 132.862 44.448C132.61 44.28 132.283 44.196 131.882 44.196C131.387 44.196 130.986 44.322 130.678 44.574C130.379 44.826 130.23 45.148 130.23 45.54C130.23 45.848 130.337 46.1093 130.552 46.324C130.776 46.5293 131.06 46.6553 131.406 46.702L132.512 46.856C133.137 46.9587 133.66 47.1687 134.08 47.486C134.509 47.794 134.724 48.2607 134.724 48.886C134.724 49.3153 134.602 49.698 134.36 50.034C134.126 50.37 133.804 50.6313 133.394 50.818C132.983 50.9953 132.521 51.084 132.008 51.084ZM138.239 44.42V49.026C138.239 49.3807 138.253 49.642 138.281 49.81C138.318 49.9687 138.407 50.0947 138.547 50.188C138.687 50.2813 138.915 50.328 139.233 50.328C139.475 50.328 139.737 50.2953 140.017 50.23V50.93C139.923 50.9673 139.779 51 139.583 51.028C139.396 51.056 139.195 51.07 138.981 51.07C138.486 51.07 138.113 51 137.861 50.86C137.618 50.7107 137.455 50.51 137.371 50.258C137.296 50.006 137.259 49.6653 137.259 49.236L137.273 44.42H135.845V43.636H137.273V41.2H138.239V43.636H140.017V44.42H138.239ZM144.942 51.084C144.195 51.084 143.565 50.902 143.052 50.538C142.539 50.174 142.156 49.698 141.904 49.11C141.652 48.522 141.526 47.9013 141.526 47.248C141.526 46.5947 141.652 45.974 141.904 45.386C142.156 44.798 142.539 44.322 143.052 43.958C143.565 43.594 144.195 43.412 144.942 43.412C145.922 43.412 146.706 43.7433 147.294 44.406C147.882 45.0687 148.176 46.0253 148.176 47.276V47.542H142.492V47.64C142.492 48.088 142.59 48.5173 142.786 48.928C142.991 49.3293 143.281 49.6513 143.654 49.894C144.027 50.1367 144.452 50.258 144.928 50.258C145.451 50.258 145.899 50.1273 146.272 49.866C146.645 49.5953 146.925 49.2313 147.112 48.774H148.064C147.859 49.4367 147.495 49.9873 146.972 50.426C146.449 50.8647 145.773 51.084 144.942 51.084ZM147.21 46.828C147.173 45.904 146.949 45.2367 146.538 44.826C146.127 44.4153 145.595 44.21 144.942 44.21C144.214 44.21 143.635 44.4527 143.206 44.938C142.786 45.4233 142.557 46.0533 142.52 46.828H147.21ZM153.264 42.306V40.36H154.342V42.306L154.146 48.634H153.488L153.264 42.306ZM153.81 51.112C153.614 51.112 153.451 51.0467 153.32 50.916C153.189 50.776 153.124 50.6127 153.124 50.426C153.124 50.2393 153.189 50.0807 153.32 49.95C153.451 49.8193 153.614 49.754 153.81 49.754C153.997 49.754 154.155 49.8193 154.286 49.95C154.426 50.0807 154.496 50.2393 154.496 50.426C154.496 50.6127 154.426 50.776 154.286 50.916C154.155 51.0467 153.997 51.112 153.81 51.112ZM163.874 51.084C162.969 51.084 162.185 50.8693 161.522 50.44C160.869 50.0107 160.365 49.418 160.01 48.662C159.665 47.8967 159.492 47.024 159.492 46.044C159.492 45.0547 159.665 44.182 160.01 43.426C160.365 42.6607 160.869 42.0633 161.522 41.634C162.185 41.2047 162.969 40.99 163.874 40.99C164.966 40.99 165.871 41.2933 166.59 41.9C167.318 42.5067 167.803 43.3327 168.046 44.378H167.094C166.879 43.6127 166.487 43.006 165.918 42.558C165.358 42.1007 164.681 41.872 163.888 41.872C162.805 41.872 161.97 42.2453 161.382 42.992C160.803 43.7387 160.514 44.7513 160.514 46.03C160.514 47.2993 160.803 48.312 161.382 49.068C161.97 49.8147 162.805 50.188 163.888 50.188C164.635 50.188 165.274 49.992 165.806 49.6C166.347 49.1987 166.739 48.6573 166.982 47.976H167.962C167.691 48.928 167.201 49.684 166.492 50.244C165.783 50.804 164.91 51.084 163.874 51.084ZM172.874 51.084C172.127 51.084 171.497 50.902 170.984 50.538C170.47 50.174 170.088 49.698 169.836 49.11C169.584 48.522 169.458 47.9013 169.458 47.248C169.458 46.5947 169.584 45.974 169.836 45.386C170.088 44.798 170.47 44.322 170.984 43.958C171.497 43.594 172.127 43.412 172.874 43.412C173.854 43.412 174.638 43.7433 175.226 44.406C175.814 45.0687 176.108 46.0253 176.108 47.276V47.542H170.424V47.64C170.424 48.088 170.522 48.5173 170.718 48.928C170.923 49.3293 171.212 49.6513 171.586 49.894C171.959 50.1367 172.384 50.258 172.86 50.258C173.382 50.258 173.83 50.1273 174.204 49.866C174.577 49.5953 174.857 49.2313 175.044 48.774H175.996C175.79 49.4367 175.426 49.9873 174.904 50.426C174.381 50.8647 173.704 51.084 172.874 51.084ZM175.142 46.828C175.104 45.904 174.88 45.2367 174.47 44.826C174.059 44.4153 173.527 44.21 172.874 44.21C172.146 44.21 171.567 44.4527 171.138 44.938C170.718 45.4233 170.489 46.0533 170.452 46.828H175.142ZM185.095 44.42V48.942C185.095 49.306 185.109 49.5767 185.137 49.754C185.174 49.9313 185.263 50.0713 185.403 50.174C185.552 50.2767 185.786 50.328 186.103 50.328C186.336 50.328 186.593 50.2953 186.873 50.23V50.93C186.78 50.9673 186.635 51 186.439 51.028C186.252 51.056 186.052 51.07 185.837 51.07C185.324 51.07 184.941 50.986 184.689 50.818C184.446 50.65 184.288 50.4307 184.213 50.16C184.148 49.88 184.115 49.516 184.115 49.068L184.129 44.42H179.733V48.942C179.733 49.306 179.747 49.5767 179.775 49.754C179.812 49.9313 179.901 50.0713 180.041 50.174C180.181 50.2767 180.41 50.328 180.727 50.328C180.97 50.328 181.231 50.2953 181.511 50.23V50.93C181.418 50.9673 181.273 51 181.077 51.028C180.89 51.056 180.69 51.07 180.475 51.07C179.962 51.07 179.579 50.986 179.327 50.818C179.084 50.65 178.926 50.4307 178.851 50.16C178.786 49.88 178.753 49.516 178.753 49.068L178.767 44.42H177.339V43.636H178.767V41.2H179.733V43.636H184.129V41.2H185.095V43.636H186.873V44.42H185.095ZM191.795 51.084C191.049 51.084 190.419 50.902 189.905 50.538C189.392 50.174 189.009 49.698 188.757 49.11C188.505 48.522 188.379 47.9013 188.379 47.248C188.379 46.5947 188.505 45.974 188.757 45.386C189.009 44.798 189.392 44.322 189.905 43.958C190.419 43.594 191.049 43.412 191.795 43.412C192.775 43.412 193.559 43.7433 194.147 44.406C194.735 45.0687 195.029 46.0253 195.029 47.276V47.542H189.345V47.64C189.345 48.088 189.443 48.5173 189.639 48.928C189.845 49.3293 190.134 49.6513 190.507 49.894C190.881 50.1367 191.305 50.258 191.781 50.258C192.304 50.258 192.752 50.1273 193.125 49.866C193.499 49.5953 193.779 49.2313 193.965 48.774H194.917C194.712 49.4367 194.348 49.9873 193.825 50.426C193.303 50.8647 192.626 51.084 191.795 51.084ZM194.063 46.828C194.026 45.904 193.802 45.2367 193.391 44.826C192.981 44.4153 192.449 44.21 191.795 44.21C191.067 44.21 190.489 44.4527 190.059 44.938C189.639 45.4233 189.411 46.0533 189.373 46.828H194.063ZM41.802 71.084C41.1487 71.084 40.6073 70.9253 40.178 70.608C39.7487 70.2813 39.4173 69.88 39.184 69.404H39.086V73.828H38.12V63.636H39.086V65.064H39.184C39.408 64.6067 39.7253 64.2193 40.136 63.902C40.556 63.5753 41.0973 63.412 41.76 63.412C42.432 63.412 43.006 63.58 43.482 63.916C43.9673 64.252 44.3313 64.714 44.574 65.302C44.826 65.8807 44.952 66.534 44.952 67.262C44.952 67.9807 44.826 68.6293 44.574 69.208C44.3313 69.7867 43.972 70.244 43.496 70.58C43.02 70.916 42.4553 71.084 41.802 71.084ZM41.536 70.23C42.3293 70.23 42.9313 69.95 43.342 69.39C43.7527 68.8207 43.958 68.1067 43.958 67.248C43.958 66.3987 43.7527 65.694 43.342 65.134C42.9313 64.5647 42.3293 64.28 41.536 64.28C40.7613 64.28 40.164 64.5647 39.744 65.134C39.324 65.7033 39.114 66.4127 39.114 67.262C39.114 68.1113 39.324 68.8207 39.744 69.39C40.164 69.95 40.7613 70.23 41.536 70.23ZM49.895 71.084C49.1483 71.084 48.5183 70.902 48.005 70.538C47.4917 70.174 47.109 69.698 46.857 69.11C46.605 68.522 46.479 67.9013 46.479 67.248C46.479 66.5947 46.605 65.974 46.857 65.386C47.109 64.798 47.4917 64.322 48.005 63.958C48.5183 63.594 49.1483 63.412 49.895 63.412C50.875 63.412 51.659 63.7433 52.247 64.406C52.835 65.0687 53.129 66.0253 53.129 67.276V67.542H47.445V67.64C47.445 68.088 47.543 68.5173 47.739 68.928C47.9443 69.3293 48.2337 69.6513 48.607 69.894C48.9803 70.1367 49.405 70.258 49.881 70.258C50.4037 70.258 50.8517 70.1273 51.225 69.866C51.5983 69.5953 51.8783 69.2313 52.065 68.774H53.017C52.8117 69.4367 52.4477 69.9873 51.925 70.426C51.4023 70.8647 50.7257 71.084 49.895 71.084ZM52.163 66.828C52.1257 65.904 51.9017 65.2367 51.491 64.826C51.0803 64.4153 50.5483 64.21 49.895 64.21C49.167 64.21 48.5883 64.4527 48.159 64.938C47.739 65.4233 47.5103 66.0533 47.473 66.828H52.163ZM55.0884 63.636H56.0544V71H55.0884V63.636ZM55.5504 62.236C55.3544 62.236 55.1911 62.1707 55.0604 62.04C54.9298 61.9 54.8644 61.732 54.8644 61.536C54.8644 61.3493 54.9298 61.1907 55.0604 61.06C55.1911 60.92 55.3544 60.85 55.5504 60.85C55.7464 60.85 55.9098 60.92 56.0404 61.06C56.1711 61.1907 56.2364 61.3493 56.2364 61.536C56.2364 61.732 56.1711 61.9 56.0404 62.04C55.9098 62.1707 55.7464 62.236 55.5504 62.236ZM58.3954 63.636H59.3754V65.022H59.4734C59.6694 64.574 59.9821 64.196 60.4114 63.888C60.8501 63.5707 61.3821 63.412 62.0074 63.412C62.6234 63.412 63.1461 63.5567 63.5754 63.846C64.0047 64.1353 64.3267 64.5273 64.5414 65.022C64.7561 65.5073 64.8634 66.044 64.8634 66.632V71H63.9114V66.73C63.9114 65.946 63.7014 65.3487 63.2814 64.938C62.8614 64.5273 62.3247 64.322 61.6714 64.322C60.9807 64.322 60.4254 64.546 60.0054 64.994C59.5854 65.4327 59.3754 66.0113 59.3754 66.73V71H58.3954V63.636ZM68.4165 64.42V69.026C68.4165 69.3807 68.4305 69.642 68.4585 69.81C68.4959 69.9687 68.5845 70.0947 68.7245 70.188C68.8645 70.2813 69.0932 70.328 69.4105 70.328C69.6532 70.328 69.9145 70.2953 70.1945 70.23V70.93C70.1012 70.9673 69.9565 71 69.7605 71.028C69.5739 71.056 69.3732 71.07 69.1585 71.07C68.6639 71.07 68.2905 71 68.0385 70.86C67.7959 70.7107 67.6325 70.51 67.5485 70.258C67.4739 70.006 67.4365 69.6653 67.4365 69.236L67.4505 64.42H66.0225V63.636H67.4505V61.2H68.4165V63.636H70.1945V64.42H68.4165ZM78.3816 71H77.4156V69.53H77.3316C77.1356 69.978 76.8229 70.356 76.3936 70.664C75.9736 70.972 75.4556 71.126 74.8396 71.126C74.2329 71.126 73.7196 70.9813 73.2996 70.692C72.8796 70.3933 72.5669 70.0013 72.3616 69.516C72.1563 69.0307 72.0536 68.4987 72.0536 67.92V63.636H73.0196V67.808C73.0196 68.6013 73.2203 69.2033 73.6216 69.614C74.0323 70.0247 74.5549 70.23 75.1896 70.23C75.8616 70.23 76.3983 70.006 76.7996 69.558C77.2103 69.11 77.4156 68.5267 77.4156 67.808V63.636H78.3816V71ZM80.4602 63.636H81.4122V64.812H81.4822C81.6128 64.4853 81.8322 64.21 82.1402 63.986C82.4482 63.7527 82.8308 63.636 83.2882 63.636C83.4562 63.636 83.5868 63.6453 83.6802 63.664C83.7828 63.6733 83.8902 63.7013 84.0022 63.748L83.9742 64.7C83.8155 64.6533 83.6802 64.6253 83.5682 64.616C83.4655 64.5973 83.3348 64.588 83.1762 64.588C82.6442 64.588 82.2148 64.7513 81.8882 65.078C81.5708 65.3953 81.4122 65.9273 81.4122 66.674V71H80.4602V63.636ZM88.2583 71.084C87.5116 71.084 86.8816 70.902 86.3683 70.538C85.8549 70.174 85.4723 69.698 85.2203 69.11C84.9683 68.522 84.8423 67.9013 84.8423 67.248C84.8423 66.5947 84.9683 65.974 85.2203 65.386C85.4723 64.798 85.8549 64.322 86.3683 63.958C86.8816 63.594 87.5116 63.412 88.2583 63.412C89.2383 63.412 90.0223 63.7433 90.6103 64.406C91.1983 65.0687 91.4923 66.0253 91.4923 67.276V67.542H85.8083V67.64C85.8083 68.088 85.9063 68.5173 86.1023 68.928C86.3076 69.3293 86.5969 69.6513 86.9703 69.894C87.3436 70.1367 87.7683 70.258 88.2443 70.258C88.7669 70.258 89.2149 70.1273 89.5883 69.866C89.9616 69.5953 90.2416 69.2313 90.4283 68.774H91.3803C91.1749 69.4367 90.8109 69.9873 90.2883 70.426C89.7656 70.8647 89.0889 71.084 88.2583 71.084ZM90.5263 66.828C90.4889 65.904 90.2649 65.2367 89.8543 64.826C89.4436 64.4153 88.9116 64.21 88.2583 64.21C87.5303 64.21 86.9516 64.4527 86.5223 64.938C86.1023 65.4233 85.8736 66.0533 85.8363 66.828H90.5263ZM99.0723 71.084C98.4843 71.084 97.9709 70.9673 97.5323 70.734C97.1029 70.5007 96.7716 70.1973 96.5383 69.824C96.3143 69.4413 96.2023 69.0447 96.2023 68.634V68.578H97.1823V68.634C97.1823 68.8953 97.2523 69.152 97.3923 69.404C97.5416 69.656 97.7609 69.8613 98.0503 70.02C98.3396 70.1787 98.6896 70.258 99.1003 70.258C99.5949 70.258 100.006 70.1413 100.332 69.908C100.659 69.6653 100.822 69.3293 100.822 68.9C100.822 68.5453 100.696 68.2653 100.444 68.06C100.202 67.8547 99.8936 67.724 99.5203 67.668L98.5123 67.528C97.8869 67.4347 97.3736 67.2293 96.9723 66.912C96.5803 66.5853 96.3843 66.128 96.3843 65.54C96.3843 64.8773 96.6269 64.3593 97.1123 63.986C97.5976 63.6033 98.2183 63.412 98.9743 63.412C99.5249 63.412 100.001 63.5193 100.402 63.734C100.804 63.9393 101.107 64.2147 101.312 64.56C101.527 64.9053 101.634 65.2787 101.634 65.68V65.722H100.654V65.694C100.654 65.4887 100.598 65.274 100.486 65.05C100.374 64.8167 100.188 64.616 99.9263 64.448C99.6743 64.28 99.3476 64.196 98.9463 64.196C98.4516 64.196 98.0503 64.322 97.7423 64.574C97.4436 64.826 97.2943 65.148 97.2943 65.54C97.2943 65.848 97.4016 66.1093 97.6163 66.324C97.8403 66.5293 98.1249 66.6553 98.4703 66.702L99.5763 66.856C100.202 66.9587 100.724 67.1687 101.144 67.486C101.574 67.794 101.788 68.2607 101.788 68.886C101.788 69.3153 101.667 69.698 101.424 70.034C101.191 70.37 100.869 70.6313 100.458 70.818C100.048 70.9953 99.5856 71.084 99.0723 71.084ZM103.987 64.196C104.519 63.9627 104.785 63.6033 104.785 63.118C104.785 62.9033 104.748 62.768 104.673 62.712C104.608 62.6467 104.51 62.614 104.379 62.614C104.155 62.614 103.992 62.5627 103.889 62.46C103.787 62.348 103.735 62.2033 103.735 62.026C103.735 61.802 103.801 61.6247 103.931 61.494C104.062 61.3633 104.249 61.298 104.491 61.298C105.089 61.298 105.387 61.6107 105.387 62.236V62.712C105.387 63.244 105.257 63.6687 104.995 63.986C104.734 64.3033 104.398 64.532 103.987 64.672V64.196ZM110.297 71.084C109.551 71.084 108.921 70.902 108.407 70.538C107.894 70.174 107.511 69.698 107.259 69.11C107.007 68.522 106.881 67.9013 106.881 67.248C106.881 66.5947 107.007 65.974 107.259 65.386C107.511 64.798 107.894 64.322 108.407 63.958C108.921 63.594 109.551 63.412 110.297 63.412C111.277 63.412 112.061 63.7433 112.649 64.406C113.237 65.0687 113.531 66.0253 113.531 67.276V67.542H107.847V67.64C107.847 68.088 107.945 68.5173 108.141 68.928C108.347 69.3293 108.636 69.6513 109.009 69.894C109.383 70.1367 109.807 70.258 110.283 70.258C110.806 70.258 111.254 70.1273 111.627 69.866C112.001 69.5953 112.281 69.2313 112.467 68.774H113.419C113.214 69.4367 112.85 69.9873 112.327 70.426C111.805 70.8647 111.128 71.084 110.297 71.084ZM112.565 66.828C112.528 65.904 112.304 65.2367 111.893 64.826C111.483 64.4153 110.951 64.21 110.297 64.21C109.569 64.21 108.991 64.4527 108.561 64.938C108.141 65.4233 107.913 66.0533 107.875 66.828H112.565ZM117.885 71.084C117.297 71.084 116.783 70.9673 116.345 70.734C115.915 70.5007 115.584 70.1973 115.351 69.824C115.127 69.4413 115.015 69.0447 115.015 68.634V68.578H115.995V68.634C115.995 68.8953 116.065 69.152 116.205 69.404C116.354 69.656 116.573 69.8613 116.863 70.02C117.152 70.1787 117.502 70.258 117.913 70.258C118.407 70.258 118.818 70.1413 119.145 69.908C119.471 69.6653 119.635 69.3293 119.635 68.9C119.635 68.5453 119.509 68.2653 119.257 68.06C119.014 67.8547 118.706 67.724 118.333 67.668L117.325 67.528C116.699 67.4347 116.186 67.2293 115.785 66.912C115.393 66.5853 115.197 66.128 115.197 65.54C115.197 64.8773 115.439 64.3593 115.925 63.986C116.41 63.6033 117.031 63.412 117.787 63.412C118.337 63.412 118.813 63.5193 119.215 63.734C119.616 63.9393 119.919 64.2147 120.125 64.56C120.339 64.9053 120.447 65.2787 120.447 65.68V65.722H119.467V65.694C119.467 65.4887 119.411 65.274 119.299 65.05C119.187 64.8167 119 64.616 118.739 64.448C118.487 64.28 118.16 64.196 117.759 64.196C117.264 64.196 116.863 64.322 116.555 64.574C116.256 64.826 116.107 65.148 116.107 65.54C116.107 65.848 116.214 66.1093 116.429 66.324C116.653 66.5293 116.937 66.6553 117.283 66.702L118.389 66.856C119.014 66.9587 119.537 67.1687 119.957 67.486C120.386 67.794 120.601 68.2607 120.601 68.886C120.601 69.3153 120.479 69.698 120.237 70.034C120.003 70.37 119.681 70.6313 119.271 70.818C118.86 70.9953 118.398 71.084 117.885 71.084ZM124.116 64.42V69.026C124.116 69.3807 124.13 69.642 124.158 69.81C124.195 69.9687 124.284 70.0947 124.424 70.188C124.564 70.2813 124.792 70.328 125.11 70.328C125.352 70.328 125.614 70.2953 125.894 70.23V70.93C125.8 70.9673 125.656 71 125.46 71.028C125.273 71.056 125.072 71.07 124.858 71.07C124.363 71.07 123.99 71 123.738 70.86C123.495 70.7107 123.332 70.51 123.248 70.258C123.173 70.006 123.136 69.6653 123.136 69.236L123.15 64.42H121.722V63.636H123.15V61.2H124.116V63.636H125.894V64.42H124.116ZM131.049 63.636H132.015V71H131.049V63.636ZM131.511 62.236C131.315 62.236 131.152 62.1707 131.021 62.04C130.891 61.9 130.825 61.732 130.825 61.536C130.825 61.3493 130.891 61.1907 131.021 61.06C131.152 60.92 131.315 60.85 131.511 60.85C131.707 60.85 131.871 60.92 132.001 61.06C132.132 61.1907 132.197 61.3493 132.197 61.536C132.197 61.732 132.132 61.9 132.001 62.04C131.871 62.1707 131.707 62.236 131.511 62.236ZM136.106 71.07C135.602 71.07 135.224 70.986 134.972 70.818C134.73 70.65 134.571 70.4307 134.496 70.16C134.431 69.88 134.398 69.516 134.398 69.068V60.5H135.364V68.942C135.364 69.306 135.378 69.5767 135.406 69.754C135.444 69.9313 135.532 70.0713 135.672 70.174C135.822 70.2767 136.055 70.328 136.372 70.328C136.466 70.328 136.568 70.3233 136.68 70.314C136.792 70.2953 136.872 70.286 136.918 70.286V70.986C136.638 71.042 136.368 71.07 136.106 71.07ZM140.358 71.07C139.854 71.07 139.476 70.986 139.224 70.818C138.982 70.65 138.823 70.4307 138.748 70.16C138.683 69.88 138.65 69.516 138.65 69.068V60.5H139.616V68.942C139.616 69.306 139.63 69.5767 139.658 69.754C139.696 69.9313 139.784 70.0713 139.924 70.174C140.074 70.2767 140.307 70.328 140.624 70.328C140.718 70.328 140.82 70.3233 140.932 70.314C141.044 70.2953 141.124 70.286 141.17 70.286V70.986C140.89 71.042 140.62 71.07 140.358 71.07ZM149.188 71H148.222V69.53H148.138C147.942 69.978 147.63 70.356 147.2 70.664C146.78 70.972 146.262 71.126 145.646 71.126C145.04 71.126 144.526 70.9813 144.106 70.692C143.686 70.3933 143.374 70.0013 143.168 69.516C142.963 69.0307 142.86 68.4987 142.86 67.92V63.636H143.826V67.808C143.826 68.6013 144.027 69.2033 144.428 69.614C144.839 70.0247 145.362 70.23 145.996 70.23C146.668 70.23 147.205 70.006 147.606 69.558C148.017 69.11 148.222 68.5267 148.222 67.808V63.636H149.188V71ZM151.364 63.636H152.33V65.036H152.428C152.465 64.924 152.563 64.7467 152.722 64.504C152.89 64.252 153.151 64.0093 153.506 63.776C153.87 63.5333 154.318 63.412 154.85 63.412C155.419 63.412 155.886 63.5427 156.25 63.804C156.623 64.0653 156.899 64.3453 157.076 64.644C157.263 64.9427 157.356 65.1293 157.356 65.204H157.468C157.515 65.0733 157.622 64.8727 157.79 64.602C157.967 64.3313 158.252 64.0653 158.644 63.804C159.036 63.5427 159.521 63.412 160.1 63.412C160.679 63.412 161.173 63.5613 161.584 63.86C161.995 64.1493 162.303 64.5413 162.508 65.036C162.723 65.5213 162.83 66.0533 162.83 66.632V71H161.864V66.688C161.864 65.9133 161.663 65.33 161.262 64.938C160.861 64.5367 160.366 64.336 159.778 64.336C159.386 64.336 159.022 64.4247 158.686 64.602C158.35 64.7793 158.079 65.0453 157.874 65.4C157.678 65.7547 157.58 66.184 157.58 66.688V71H156.614V66.688C156.614 65.9133 156.413 65.33 156.012 64.938C155.611 64.5367 155.116 64.336 154.528 64.336C154.136 64.336 153.772 64.4247 153.436 64.602C153.1 64.7793 152.829 65.0453 152.624 65.4C152.428 65.7547 152.33 66.184 152.33 66.688V71H151.364V63.636ZM165.024 63.636H165.99V71H165.024V63.636ZM165.486 62.236C165.29 62.236 165.127 62.1707 164.996 62.04C164.865 61.9 164.8 61.732 164.8 61.536C164.8 61.3493 164.865 61.1907 164.996 61.06C165.127 60.92 165.29 60.85 165.486 60.85C165.682 60.85 165.845 60.92 165.976 61.06C166.107 61.1907 166.172 61.3493 166.172 61.536C166.172 61.732 166.107 61.9 165.976 62.04C165.845 62.1707 165.682 62.236 165.486 62.236ZM168.331 63.636H169.311V65.022H169.409C169.605 64.574 169.918 64.196 170.347 63.888C170.786 63.5707 171.318 63.412 171.943 63.412C172.559 63.412 173.082 63.5567 173.511 63.846C173.94 64.1353 174.262 64.5273 174.477 65.022C174.692 65.5073 174.799 66.044 174.799 66.632V71H173.847V66.73C173.847 65.946 173.637 65.3487 173.217 64.938C172.797 64.5273 172.26 64.322 171.607 64.322C170.916 64.322 170.361 64.546 169.941 64.994C169.521 65.4327 169.311 66.0113 169.311 66.73V71H168.331V63.636ZM180.065 71.084C179.318 71.084 178.688 70.902 178.175 70.538C177.662 70.174 177.279 69.698 177.027 69.11C176.775 68.522 176.649 67.9013 176.649 67.248C176.649 66.5947 176.775 65.974 177.027 65.386C177.279 64.798 177.662 64.322 178.175 63.958C178.688 63.594 179.318 63.412 180.065 63.412C181.045 63.412 181.829 63.7433 182.417 64.406C183.005 65.0687 183.299 66.0253 183.299 67.276V67.542H177.615V67.64C177.615 68.088 177.713 68.5173 177.909 68.928C178.114 69.3293 178.404 69.6513 178.777 69.894C179.15 70.1367 179.575 70.258 180.051 70.258C180.574 70.258 181.022 70.1273 181.395 69.866C181.768 69.5953 182.048 69.2313 182.235 68.774H183.187C182.982 69.4367 182.618 69.9873 182.095 70.426C181.572 70.8647 180.896 71.084 180.065 71.084ZM182.333 66.828C182.296 65.904 182.072 65.2367 181.661 64.826C181.25 64.4153 180.718 64.21 180.065 64.21C179.337 64.21 178.758 64.4527 178.329 64.938C177.909 65.4233 177.68 66.0533 177.643 66.828H182.333ZM179.715 62.656L181.087 60.22H182.151L180.499 62.656H179.715ZM188.254 71.084C187.508 71.084 186.878 70.902 186.364 70.538C185.851 70.174 185.468 69.698 185.216 69.11C184.964 68.522 184.838 67.9013 184.838 67.248C184.838 66.5947 184.964 65.974 185.216 65.386C185.468 64.798 185.851 64.322 186.364 63.958C186.878 63.594 187.508 63.412 188.254 63.412C189.234 63.412 190.018 63.7433 190.606 64.406C191.194 65.0687 191.488 66.0253 191.488 67.276V67.542H185.804V67.64C185.804 68.088 185.902 68.5173 186.098 68.928C186.304 69.3293 186.593 69.6513 186.966 69.894C187.34 70.1367 187.764 70.258 188.24 70.258C188.763 70.258 189.211 70.1273 189.584 69.866C189.958 69.5953 190.238 69.2313 190.424 68.774H191.376C191.171 69.4367 190.807 69.9873 190.284 70.426C189.762 70.8647 189.085 71.084 188.254 71.084ZM190.522 66.828C190.485 65.904 190.261 65.2367 189.85 64.826C189.44 64.4153 188.908 64.21 188.254 64.21C187.526 64.21 186.948 64.4527 186.518 64.938C186.098 65.4233 185.87 66.0533 185.832 66.828H190.522ZM41.382 93.898C40.9527 93.898 40.556 93.8327 40.192 93.702V92.876C40.304 92.9133 40.4627 92.946 40.668 92.974C40.8733 93.002 41.0833 93.016 41.298 93.016C42.054 93.016 42.6327 92.806 43.034 92.386C43.4353 91.966 43.636 91.392 43.636 90.664V89.208H43.524C43.3093 89.684 42.978 90.076 42.53 90.384C42.082 90.692 41.5453 90.846 40.92 90.846C40.304 90.846 39.758 90.6873 39.282 90.37C38.806 90.0527 38.4327 89.614 38.162 89.054C37.9007 88.4847 37.77 87.8407 37.77 87.122C37.77 86.4033 37.896 85.764 38.148 85.204C38.4093 84.6347 38.778 84.1913 39.254 83.874C39.73 83.5567 40.2807 83.398 40.906 83.398C41.5593 83.398 42.11 83.566 42.558 83.902C43.0153 84.238 43.342 84.6487 43.538 85.134H43.636V83.65H44.602V90.664C44.602 91.196 44.49 91.7093 44.266 92.204C44.042 92.6987 43.6873 93.1047 43.202 93.422C42.726 93.7393 42.1193 93.898 41.382 93.898ZM41.2 89.992C41.7133 89.992 42.152 89.8613 42.516 89.6C42.88 89.3293 43.1507 88.9747 43.328 88.536C43.5147 88.0973 43.608 87.6167 43.608 87.094C43.608 86.59 43.5147 86.1233 43.328 85.694C43.1507 85.2553 42.88 84.9053 42.516 84.644C42.1613 84.3827 41.7227 84.252 41.2 84.252C40.6773 84.252 40.234 84.3827 39.87 84.644C39.5153 84.9053 39.2447 85.2553 39.058 85.694C38.8807 86.1233 38.792 86.59 38.792 87.094C38.792 87.6167 38.8807 88.0973 39.058 88.536C39.2447 88.9747 39.5153 89.3293 39.87 89.6C40.234 89.8613 40.6773 89.992 41.2 89.992ZM46.7863 83.636H47.7383V84.812H47.8083C47.939 84.4853 48.1583 84.21 48.4663 83.986C48.7743 83.7527 49.157 83.636 49.6143 83.636C49.7823 83.636 49.913 83.6453 50.0063 83.664C50.109 83.6733 50.2163 83.7013 50.3283 83.748L50.3003 84.7C50.1417 84.6533 50.0063 84.6253 49.8943 84.616C49.7917 84.5973 49.661 84.588 49.5023 84.588C48.9703 84.588 48.541 84.7513 48.2143 85.078C47.897 85.3953 47.7383 85.9273 47.7383 86.674V91H46.7863V83.636ZM54.2484 91.084C53.5951 91.084 53.0304 90.916 52.5544 90.58C52.0878 90.244 51.7284 89.7867 51.4764 89.208C51.2338 88.6293 51.1124 87.9807 51.1124 87.262C51.1124 86.534 51.2338 85.8807 51.4764 85.302C51.7284 84.714 52.0924 84.252 52.5684 83.916C53.0538 83.58 53.6324 83.412 54.3044 83.412C54.9671 83.412 55.5038 83.5753 55.9144 83.902C56.3344 84.2193 56.6564 84.6067 56.8804 85.064H56.9784V83.636H57.9444V91H56.9784V89.404H56.8804C56.6378 89.88 56.3018 90.2813 55.8724 90.608C55.4524 90.9253 54.9111 91.084 54.2484 91.084ZM54.5144 90.23C55.2984 90.23 55.8958 89.95 56.3064 89.39C56.7264 88.8207 56.9364 88.1067 56.9364 87.248C56.9364 86.3893 56.7264 85.68 56.3064 85.12C55.8958 84.56 55.2984 84.28 54.5144 84.28C53.7211 84.28 53.1191 84.5647 52.7084 85.134C52.3071 85.694 52.1064 86.3987 52.1064 87.248C52.1064 88.1067 52.3118 88.8207 52.7224 89.39C53.1331 89.95 53.7304 90.23 54.5144 90.23ZM54.2344 80.71H55.1444L56.9364 82.684H55.9144L54.7104 81.368H54.6544L53.4504 82.684H52.4424L54.2344 80.71ZM63.2397 91.098C62.4744 91.098 61.8304 90.916 61.3077 90.552C60.7944 90.188 60.4117 89.712 60.1597 89.124C59.9077 88.536 59.7817 87.9107 59.7817 87.248C59.7817 86.5947 59.9077 85.9787 60.1597 85.4C60.4117 84.812 60.7944 84.336 61.3077 83.972C61.8304 83.5987 62.4744 83.412 63.2397 83.412C63.8837 83.412 64.4344 83.5427 64.8917 83.804C65.3491 84.0653 65.7037 84.4107 65.9557 84.84C66.2077 85.2693 66.3664 85.7313 66.4317 86.226H65.4937C65.4004 85.6473 65.1624 85.176 64.7797 84.812C64.3971 84.448 63.8837 84.266 63.2397 84.266C62.4371 84.266 61.8211 84.5507 61.3917 85.12C60.9717 85.68 60.7617 86.3893 60.7617 87.248C60.7617 88.116 60.9717 88.8347 61.3917 89.404C61.8211 89.964 62.4371 90.244 63.2397 90.244C63.8837 90.244 64.3971 90.0667 64.7797 89.712C65.1624 89.348 65.4004 88.872 65.4937 88.284H66.4317C66.3664 88.7787 66.2077 89.2407 65.9557 89.67C65.7037 90.0993 65.3491 90.4447 64.8917 90.706C64.4344 90.9673 63.8837 91.098 63.2397 91.098ZM71.2778 91.084C70.5311 91.084 69.9011 90.902 69.3878 90.538C68.8745 90.174 68.4918 89.698 68.2398 89.11C67.9878 88.522 67.8618 87.9013 67.8618 87.248C67.8618 86.5947 67.9878 85.974 68.2398 85.386C68.4918 84.798 68.8745 84.322 69.3878 83.958C69.9011 83.594 70.5311 83.412 71.2778 83.412C72.2578 83.412 73.0418 83.7433 73.6298 84.406C74.2178 85.0687 74.5118 86.0253 74.5118 87.276V87.542H68.8278V87.64C68.8278 88.088 68.9258 88.5173 69.1218 88.928C69.3271 89.3293 69.6165 89.6513 69.9898 89.894C70.3631 90.1367 70.7878 90.258 71.2638 90.258C71.7865 90.258 72.2345 90.1273 72.6078 89.866C72.9811 89.5953 73.2611 89.2313 73.4478 88.774H74.3998C74.1945 89.4367 73.8305 89.9873 73.3078 90.426C72.7851 90.8647 72.1085 91.084 71.2778 91.084ZM73.5458 86.828C73.5085 85.904 73.2845 85.2367 72.8738 84.826C72.4631 84.4153 71.9311 84.21 71.2778 84.21C70.5498 84.21 69.9711 84.4527 69.5418 84.938C69.1218 85.4233 68.8931 86.0533 68.8558 86.828H73.5458ZM82.3578 91.084C81.7045 91.084 81.1398 90.916 80.6638 90.58C80.1971 90.244 79.8378 89.7867 79.5858 89.208C79.3431 88.6293 79.2218 87.9807 79.2218 87.262C79.2218 86.534 79.3431 85.8807 79.5858 85.302C79.8378 84.714 80.2018 84.252 80.6778 83.916C81.1631 83.58 81.7418 83.412 82.4138 83.412C83.0765 83.412 83.6131 83.5753 84.0238 83.902C84.4438 84.2193 84.7658 84.6067 84.9898 85.064H85.0878V83.636H86.0538V91H85.0878V89.404H84.9898C84.7471 89.88 84.4111 90.2813 83.9818 90.608C83.5618 90.9253 83.0205 91.084 82.3578 91.084ZM82.6238 90.23C83.4078 90.23 84.0051 89.95 84.4158 89.39C84.8358 88.8207 85.0458 88.1067 85.0458 87.248C85.0458 86.3893 84.8358 85.68 84.4158 85.12C84.0051 84.56 83.4078 84.28 82.6238 84.28C81.8305 84.28 81.2285 84.5647 80.8178 85.134C80.4165 85.694 80.2158 86.3987 80.2158 87.248C80.2158 88.1067 80.4211 88.8207 80.8318 89.39C81.2425 89.95 81.8398 90.23 82.6238 90.23ZM80.7058 80.22H81.7698L83.1418 82.656H82.3578L80.7058 80.22ZM90.9337 83.636H91.8997L94.2517 89.964H94.3217L96.6877 83.636H97.6397L94.8817 91H93.6777L90.9337 83.636ZM102.081 91.084C101.343 91.084 100.718 90.902 100.205 90.538C99.6912 90.174 99.3039 89.7027 99.0425 89.124C98.7905 88.536 98.6645 87.9153 98.6645 87.262C98.6645 86.5993 98.7905 85.9787 99.0425 85.4C99.3039 84.812 99.6912 84.336 100.205 83.972C100.718 83.608 101.343 83.426 102.081 83.426C102.818 83.426 103.443 83.608 103.957 83.972C104.47 84.336 104.853 84.812 105.105 85.4C105.366 85.9787 105.497 86.5947 105.497 87.248C105.497 87.9107 105.366 88.536 105.105 89.124C104.853 89.7027 104.47 90.174 103.957 90.538C103.443 90.902 102.818 91.084 102.081 91.084ZM102.081 90.23C102.575 90.23 103.005 90.0993 103.369 89.838C103.742 89.5673 104.027 89.208 104.223 88.76C104.428 88.3027 104.531 87.7987 104.531 87.248C104.531 86.688 104.433 86.184 104.237 85.736C104.041 85.2787 103.756 84.9193 103.383 84.658C103.009 84.3967 102.575 84.266 102.081 84.266C101.586 84.266 101.152 84.3967 100.779 84.658C100.405 84.9193 100.121 85.2787 99.9245 85.736C99.7285 86.1933 99.6305 86.6973 99.6305 87.248C99.6305 87.808 99.7285 88.3167 99.9245 88.774C100.121 89.222 100.401 89.5767 100.765 89.838C101.138 90.0993 101.577 90.23 102.081 90.23ZM113.71 91H112.744V89.53H112.66C112.464 89.978 112.151 90.356 111.722 90.664C111.302 90.972 110.784 91.126 110.168 91.126C109.561 91.126 109.048 90.9813 108.628 90.692C108.208 90.3933 107.895 90.0013 107.69 89.516C107.484 89.0307 107.382 88.4987 107.382 87.92V83.636H108.348V87.808C108.348 88.6013 108.548 89.2033 108.95 89.614C109.36 90.0247 109.883 90.23 110.518 90.23C111.19 90.23 111.726 90.006 112.128 89.558C112.538 89.11 112.744 88.5267 112.744 87.808V83.636H113.71V91ZM118.322 91.084C117.734 91.084 117.221 90.9673 116.782 90.734C116.353 90.5007 116.022 90.1973 115.788 89.824C115.564 89.4413 115.452 89.0447 115.452 88.634V88.578H116.432V88.634C116.432 88.8953 116.502 89.152 116.642 89.404C116.792 89.656 117.011 89.8613 117.3 90.02C117.59 90.1787 117.94 90.258 118.35 90.258C118.845 90.258 119.256 90.1413 119.582 89.908C119.909 89.6653 120.072 89.3293 120.072 88.9C120.072 88.5453 119.946 88.2653 119.694 88.06C119.452 87.8547 119.144 87.724 118.77 87.668L117.762 87.528C117.137 87.4347 116.624 87.2293 116.222 86.912C115.83 86.5853 115.634 86.128 115.634 85.54C115.634 84.8773 115.877 84.3593 116.362 83.986C116.848 83.6033 117.468 83.412 118.224 83.412C118.775 83.412 119.251 83.5193 119.652 83.734C120.054 83.9393 120.357 84.2147 120.562 84.56C120.777 84.9053 120.884 85.2787 120.884 85.68V85.722H119.904V85.694C119.904 85.4887 119.848 85.274 119.736 85.05C119.624 84.8167 119.438 84.616 119.176 84.448C118.924 84.28 118.598 84.196 118.196 84.196C117.702 84.196 117.3 84.322 116.992 84.574C116.694 84.826 116.544 85.148 116.544 85.54C116.544 85.848 116.652 86.1093 116.866 86.324C117.09 86.5293 117.375 86.6553 117.72 86.702L118.826 86.856C119.452 86.9587 119.974 87.1687 120.394 87.486C120.824 87.794 121.038 88.2607 121.038 88.886C121.038 89.3153 120.917 89.698 120.674 90.034C120.441 90.37 120.119 90.6313 119.708 90.818C119.298 90.9953 118.836 91.084 118.322 91.084ZM126.016 82.306V80.36H127.094V82.306L126.898 88.634H126.24L126.016 82.306ZM126.562 91.112C126.366 91.112 126.202 91.0467 126.072 90.916C125.941 90.776 125.876 90.6127 125.876 90.426C125.876 90.2393 125.941 90.0807 126.072 89.95C126.202 89.8193 126.366 89.754 126.562 89.754C126.748 89.754 126.907 89.8193 127.038 89.95C127.178 90.0807 127.248 90.2393 127.248 90.426C127.248 90.6127 127.178 90.776 127.038 90.916C126.907 91.0467 126.748 91.112 126.562 91.112Z" fill="black"/>
</svg>
